<svg width="730" height="44" viewBox="0 0 730 44" fill="none" xmlns="http://www.w3.org/2000/svg">
<path d="M1.16999 4.59967L7.28891 4.30911C12.388 4.07667 15.7874 3.90234 17.6004 3.90234C23.0961 3.90234 27.4021 4.774 30.5182 6.45919C33.5776 8.2025 35.9006 10.5269 37.4303 13.4905C38.96 16.4541 39.6966 19.8245 39.6966 23.7179C39.6966 26.5072 39.3 29.064 38.4501 31.3885C37.6003 33.7129 36.5238 35.6305 35.0507 37.1414C33.6343 38.6522 31.9346 39.8144 30.0649 40.628C28.1953 41.4415 26.3822 41.9064 24.6825 42.1388C22.9828 42.3132 20.6032 42.4294 17.4871 42.4294H1V41.151H2.52974C4.11613 41.151 5.19261 40.9185 5.81584 40.5117C6.43906 40.105 6.83566 39.4658 7.00563 38.5941C7.1756 37.7225 7.28891 35.6886 7.28891 32.4925V14.1297C7.28891 11.108 7.1756 9.13226 7.00563 8.26061C6.83566 7.38895 6.43904 6.74974 5.92913 6.45919C5.36257 6.11053 4.17279 5.9362 2.24646 5.9362H1.16999V4.65778V4.59967ZM12.6146 5.41321V30.8655C12.6146 34.6426 12.6713 37.0832 12.8413 38.1292C12.9546 39.2333 13.4078 39.9888 14.0877 40.3955C14.7676 40.8604 16.2407 41.0347 18.4503 41.0347C21.6797 41.0347 24.3426 40.5699 26.4389 39.6982C28.5352 38.7684 30.2349 37.0251 31.6513 34.3521C33.0677 31.679 33.7476 28.2505 33.7476 24.1247C33.7476 20.8705 33.351 18.0231 32.5012 15.5244C31.708 12.9675 30.5182 10.9337 28.9885 9.3647C27.4587 7.79572 25.759 6.69163 23.946 6.11053C22.0763 5.52943 19.7534 5.23888 16.8639 5.23888C15.4475 5.23888 14.0877 5.23888 12.6146 5.3551V5.41321Z" fill="#281A0F" stroke="#281A0F" stroke-width="0.209136"/>
<path d="M51.8206 24.3496C52.4438 22.6644 53.4636 21.2698 54.8234 20.1657C56.2398 19.0616 57.5995 18.4805 58.9027 18.4805C60.0924 18.4805 61.0556 18.8872 61.7355 19.6427C62.4154 20.3981 62.812 21.2116 62.812 22.0252C62.812 22.5482 62.642 23.0131 62.302 23.4198C61.9621 23.8266 61.5089 24.0009 60.9989 24.0009C60.0924 24.0009 59.4126 23.3036 58.9027 21.909C58.5627 20.9792 58.1094 20.5143 57.4296 20.5143C56.6364 20.5143 55.7299 21.0373 54.5967 22.1414C53.5202 23.2455 52.7837 24.3496 52.5004 25.5699C52.2171 26.7321 52.0472 28.3592 52.0472 30.4512V34.577C52.0472 37.0176 52.0472 38.5866 52.1605 39.2258C52.2172 39.865 52.5004 40.3299 52.9537 40.6786C53.4069 41.0272 54.2001 41.2015 55.3899 41.2015H56.1265V42.48H44.2285V41.2015H44.7951C45.8716 41.2015 46.6648 41.0272 47.118 40.7367C47.5713 40.4461 47.8546 39.9812 47.9679 39.4001C48.0812 38.819 48.0812 37.2501 48.0812 34.577V28.0686C48.0812 25.5699 48.0812 24.059 47.9679 23.4198C47.9112 22.7806 47.628 22.3157 47.1747 21.9671C46.7214 21.6184 45.9282 21.4441 44.7385 21.4441H44.1719V20.1657C45.8716 19.9332 48.1379 19.4102 50.914 18.4805C51.424 19.9913 51.7639 21.909 51.8206 24.3496Z" fill="#281A0F" stroke="#281A0F" stroke-width="0.209136"/>
<path d="M61.2305 40.2722C61.2305 39.4587 61.5138 38.7613 62.0803 38.1802C62.6469 37.5991 63.3268 37.3086 64.1766 37.3086C65.0265 37.3086 65.7064 37.5991 66.2729 38.1802C66.8395 38.7613 67.1228 39.4587 67.1228 40.2722C67.1228 41.0858 66.8395 41.8412 66.2729 42.4223C65.7064 43.0034 64.9698 43.2939 64.1766 43.2939C63.3834 43.2939 62.6469 43.0034 62.0803 42.3642C61.5138 41.7831 61.2305 41.0276 61.2305 40.2141V40.2722Z" fill="#281A0F" stroke="#281A0F" stroke-width="0.209136"/>
<path d="M89.8984 2.10547H118V11.4612H117.207C116.81 7.3935 115.451 5.24342 113.468 4.08122C111.371 2.97712 108.595 2.8609 105.422 2.8609H102.136V21.6305H104.573C105.876 21.6305 107.292 21.6305 108.085 21.4562C111.825 21.0494 113.524 19.0736 113.808 15.8776H114.544V29.0686H113.808C113.638 25.3495 112.108 23.0251 108.142 22.6184C107.065 22.444 105.592 22.444 104.346 22.444H102.136V41.6204H105.819V42.3758H89.8984V41.6204H93.2412V2.8609H89.8984V2.10547Z" fill="#281A0F" stroke="#281A0F" stroke-width="0.209136"/>
<path d="M125.32 2.10547H153.762V11.4612H152.969C152.572 7.39349 151.269 5.24342 149.229 4.08121C147.133 2.97712 144.357 2.8609 141.184 2.8609H137.558V21.6305H140.334C141.864 21.6305 143.394 21.6305 144.244 21.4562C147.983 21.0494 149.683 19.0736 149.966 15.8776H150.703V29.0686H149.966C149.796 25.4076 148.266 23.0251 144.3 22.6184C143.224 22.444 141.581 22.444 140.164 22.444H137.558V41.5623H142.487C145.717 41.5623 148.55 41.2136 150.646 39.7609C152.686 38.3081 153.989 35.6931 154.215 31.2187H155.008V42.3177H125.32V41.5623H128.72V2.8609H125.32V2.10547Z" fill="#281A0F" stroke="#281A0F" stroke-width="0.209136"/>
<path d="M164.121 2.1006H174.206C175.622 2.1006 176.756 2.04249 177.435 1.98438C178.172 1.98438 178.795 1.98438 179.418 1.98438C185.311 1.98438 190.976 3.61146 195.056 6.80752C199.135 10.0617 201.798 15.0011 201.798 21.6256C201.798 29.1799 199.475 34.3517 195.509 37.7221C191.6 41.1506 186.104 42.6615 179.815 42.6615C178.682 42.6615 177.719 42.6034 176.586 42.5453C175.396 42.4872 173.979 42.4291 171.996 42.4291H164.121V41.6736H167.464V2.85603H164.121V2.1006ZM176.359 41.6736C181.005 42.1385 184.858 41.3831 187.577 38.4776C190.24 35.5139 191.77 30.4584 191.77 22.2067C191.77 13.9551 190.07 8.49271 187.294 5.76154C184.461 3.08847 180.608 2.62359 176.359 2.85603V41.6736Z" fill="#281A0F" stroke="#281A0F" stroke-width="0.209136"/>
<path d="M209.938 2.10547H238.379V11.4612H237.586C237.189 7.39349 235.886 5.24342 233.847 4.08121C231.75 2.97712 228.974 2.8609 225.801 2.8609H222.175V21.6305H224.952C226.481 21.6305 228.011 21.6305 228.861 21.4562C232.6 21.0494 234.3 19.0736 234.583 15.8776H235.32V29.0686H234.583C234.413 25.4076 232.883 23.0251 228.918 22.6184C227.841 22.444 226.198 22.444 224.782 22.444H222.175V41.5623H227.104C230.334 41.5623 233.167 41.2136 235.263 39.7609C237.303 38.3081 238.606 35.6931 238.832 31.2187H239.626V42.3177H209.938V41.5623H213.28V2.8609H209.938V2.10547Z" fill="#281A0F" stroke="#281A0F" stroke-width="0.209136"/>
<path d="M261.043 23.1931V41.6722H264.442V42.4276H248.805V41.6722H252.147V2.91269H248.805V2.09914H257.813C259.173 2.09914 260.419 2.04103 261.666 1.92481C262.912 1.92481 264.329 1.80859 265.972 1.80859C268.465 1.80859 272.147 2.3897 275.093 4.01678C278.04 5.64386 280.306 8.31693 280.306 12.5009C280.306 15.5226 278.946 18.0213 276.793 19.7065C274.64 21.3917 271.694 22.3796 268.748 22.4958C273.224 22.5539 276 23.7742 277.586 25.6338C279.173 27.5514 279.626 30.1082 279.626 32.7232C279.626 35.3382 279.796 36.9652 280.136 38.0693C280.419 39.1734 281.099 39.6964 282.119 39.6964C282.742 39.6964 283.195 39.3478 283.535 38.941C283.705 38.7667 283.819 38.5342 283.875 38.3599C283.932 38.1856 283.989 38.0112 284.045 37.9531L284.668 38.1856C284.498 39.0572 284.045 40.2775 282.912 41.3235C281.779 42.3695 280.079 43.183 277.813 43.183C272.374 43.183 270.391 39.9289 270.391 34.5827C270.391 29.2366 269.881 26.3311 268.408 24.8783C266.935 23.3675 264.612 23.2512 260.986 23.2512L261.043 23.1931ZM261.043 22.3215C268.068 22.3796 271.184 18.6024 271.184 11.8617C271.184 7.91016 270.108 5.52764 268.351 4.19111C266.538 2.85458 263.989 2.56403 261.043 2.79647V22.3215Z" fill="#281A0F" stroke="#281A0F" stroke-width="0.209136"/>
<path d="M306.22 41.6785H309.563V42.4339H293.926V41.6785H297.325V2.8609H293.926V2.10547H309.563V2.8609H306.22V41.6204V41.6785Z" fill="#281A0F" stroke="#281A0F" stroke-width="0.209136"/>
<path d="M317.707 23.2577C317.707 16.2844 320.143 10.764 323.996 6.9868C327.849 3.20964 333.344 1.17578 339.407 1.17578C344.109 1.17578 348.188 2.45421 351.135 4.31373V13.3208H350.341C349.605 5.24349 346.092 1.98932 339.86 1.98932C334.477 1.98932 331.361 5.12727 329.662 9.31121C327.849 13.4951 327.452 18.8413 327.452 23.4901C327.452 29.6498 328.245 34.4148 330.058 37.669C331.815 40.9231 334.534 42.6083 338.557 42.6083C342.863 42.6083 345.582 40.9813 347.339 38.4825C349.095 35.9257 349.775 32.4972 350.058 28.8362H350.851V40.342C349.095 41.3299 347.055 42.1435 344.846 42.6664C342.693 43.1894 340.426 43.48 338.387 43.48C332.155 43.48 327.055 41.5042 323.486 38.0176C319.86 34.531 317.764 29.5335 317.764 23.3739L317.707 23.2577Z" fill="#281A0F" stroke="#281A0F" stroke-width="0.209136"/>
<path d="M359.816 23.0833C359.816 15.8777 362.253 10.4153 366.162 6.75436C370.071 3.09342 375.454 1.17578 381.403 1.17578C388.088 1.17578 393.187 3.50019 396.643 7.33546C400.099 11.1707 401.856 16.5169 401.856 22.5022C401.856 29.5917 399.193 34.7635 395.17 38.192C391.148 41.6205 385.709 43.3057 380.156 43.3057C374.094 43.3057 368.995 41.2718 365.425 37.7852C361.856 34.3567 359.816 29.243 359.816 23.0252V23.0833ZM391.941 23.2576C391.941 17.3304 391.318 12.0424 389.618 8.20711C387.918 4.37184 385.142 1.98932 380.893 1.98932C377.38 1.98932 375.057 3.50019 373.357 5.70837C371.658 8.03278 370.695 11.0545 370.298 14.2506C369.788 17.3885 369.675 20.7008 369.675 23.2576C369.675 29.1849 370.525 33.8918 372.338 37.3203C374.151 40.7488 376.87 42.5502 380.723 42.5502C384.066 42.5502 386.445 41.3299 388.145 39.4123C389.844 37.4946 390.808 34.8216 391.261 31.9742C391.771 29.1268 391.941 25.9888 391.941 23.1995V23.2576Z" fill="#281A0F" stroke="#281A0F" stroke-width="0.209136"/>
<path d="M426.699 2.10547H455.141V11.4612H454.348C453.951 7.39349 452.648 5.24342 450.608 4.08121C448.512 2.97712 445.736 2.8609 442.563 2.8609H438.937V21.6305H441.713C443.243 21.6305 444.773 21.6305 445.623 21.4562C449.362 21.0494 451.062 19.0736 451.345 15.8776H452.081V29.0686H451.345C451.175 25.4076 449.645 23.0251 445.679 22.6184C444.603 22.444 442.96 22.444 441.543 22.444H438.937V41.5623H443.866C447.039 41.5623 449.929 41.2136 452.025 39.7609C454.064 38.3081 455.368 35.6931 455.594 31.2187H456.387V42.3177H426.699V41.5623H430.042V2.8609H426.699V2.10547Z" fill="#281A0F" stroke="#281A0F" stroke-width="0.209136"/>
<path d="M471.973 38.014C471.973 40.3965 470.103 42.3723 467.724 42.3723C465.344 42.3723 463.418 40.3384 463.418 38.014C463.418 35.6896 465.344 33.5977 467.724 33.5977C470.103 33.5977 471.973 35.5734 471.973 38.014Z" fill="#281A0F" stroke="#281A0F" stroke-width="0.209136"/>
<path d="M497.826 2.10547H527.175V2.8609L506.948 41.6204H514.823C517.996 41.6204 520.942 41.2136 523.039 39.7609C525.078 38.3081 526.325 35.7513 526.551 31.2768H527.345V42.3758H496.863V41.5623L516.976 2.8609H510.348C507.175 2.8609 504.399 2.97712 502.359 4.08122C500.263 5.24342 498.846 7.3935 498.563 11.4612H497.77V2.10547H497.826Z" fill="#281A0F" stroke="#281A0F" stroke-width="0.209136"/>
<path d="M572.144 41.6771H575.203V42.4325H559.283V41.6771H562.625L557.016 27.2077H544.835L538.376 41.6771H541.719V42.4325H534.297V41.6771H537.356L555.657 1H556.393L572.144 41.6771ZM551.351 12.5639L545.118 26.3941H556.733L551.351 12.5639Z" fill="#281A0F" stroke="#281A0F" stroke-width="0.209136"/>
<path d="M597.018 42.4276H581.324V41.6722H584.667V2.91269H581.324V2.09914H590.106C591.296 2.09914 592.599 2.04103 594.129 1.92481C595.602 1.92481 596.962 1.80859 598.265 1.80859C599.908 1.80859 602.117 2.09914 604.384 2.85458C606.593 3.61001 608.746 4.83032 610.389 6.63174C612.032 8.49126 613.165 10.99 613.165 14.3023C613.165 20.5201 610.503 24.181 606.763 26.1568C603.024 28.1325 598.151 28.4812 593.675 27.9582V41.6722H597.018V42.4276ZM593.675 27.2027C597.698 27.4352 600.304 26.0986 601.891 23.7742C603.477 21.3917 604.044 18.1376 604.044 14.4766C604.044 9.88591 602.684 6.86418 600.758 5.06276C598.775 3.20324 596.225 2.62214 593.732 2.91269V27.2609L593.675 27.2027Z" fill="#281A0F" stroke="#281A0F" stroke-width="0.209136"/>
<path d="M649.816 41.6771H652.875V42.4325H636.954V41.6771H640.297L634.688 27.2077H622.507L616.048 41.6771H619.391V42.4325H611.969V41.6771H615.028L633.328 1H634.065L649.816 41.6771ZM629.022 12.5639L622.79 26.3941H634.405L629.022 12.5639Z" fill="#281A0F" stroke="#281A0F" stroke-width="0.209136"/>
<path d="M667.175 2.91901C664.059 2.91901 661.226 3.03523 659.187 4.13932C657.091 5.30153 655.674 7.4516 655.391 11.5193H654.598V2.10547H688.535V11.4612H687.742C687.345 7.50971 685.986 5.30153 684.003 4.13932C681.906 2.97712 679.187 2.8609 676.014 2.8609V41.5623H679.357V42.3177H663.776V41.5623H667.119V2.91901H667.175Z" fill="#281A0F" stroke="#281A0F" stroke-width="0.209136"/>
<path d="M725.94 41.6771H729V42.4325H713.079V41.6771H716.422L710.813 27.2077H698.632L692.173 41.6771H695.516V42.4325H688.094V41.6771H691.153L709.453 1H710.19L725.94 41.6771ZM705.147 12.5639L698.915 26.3941H710.53L705.147 12.5639Z" fill="#281A0F" stroke="#281A0F" stroke-width="0.209136"/>
</svg>
