<svg width="509" height="62" viewBox="0 0 509 62" fill="none" xmlns="http://www.w3.org/2000/svg">
<g clip-path="url(#clip0_1674_528)">
<path d="M99.0761 1.66246L101.676 1.54187C103.843 1.4454 105.288 1.37305 106.058 1.37305C108.393 1.37305 110.223 1.73481 111.547 2.43422C112.847 3.15775 113.834 4.12245 114.484 5.35245C115.135 6.58245 115.448 7.98127 115.448 9.59715C115.448 10.7548 115.279 11.816 114.918 12.7807C114.557 13.7454 114.099 14.5413 113.473 15.1683C112.871 15.7954 112.149 16.2777 111.355 16.6154C110.56 16.953 109.79 17.146 109.067 17.2424C108.345 17.3148 107.334 17.363 106.01 17.363H99.0039V16.8324H99.6539C100.328 16.8324 100.786 16.736 101.05 16.5671C101.315 16.3983 101.484 16.133 101.556 15.7713C101.628 15.4095 101.676 14.5654 101.676 13.2389V5.61775C101.676 4.36363 101.628 3.54363 101.556 3.18187C101.484 2.8201 101.315 2.55481 101.098 2.43422C100.858 2.28952 100.352 2.21716 99.5336 2.21716H99.0761V1.68658V1.66246ZM103.939 2.0001V12.5636C103.939 14.1313 103.963 15.1442 104.036 15.5783C104.084 16.0366 104.276 16.3501 104.565 16.5189C104.854 16.7118 105.48 16.7842 106.419 16.7842C107.791 16.7842 108.923 16.5913 109.814 16.2295C110.705 15.8436 111.427 15.1201 112.029 14.0107C112.631 12.9013 112.92 11.4783 112.92 9.76597C112.92 8.41539 112.751 7.23363 112.39 6.19657C112.053 5.13539 111.547 4.29128 110.897 3.6401C110.247 2.98893 109.525 2.53069 108.755 2.28952C107.96 2.04834 106.973 1.92775 105.745 1.92775C105.143 1.92775 104.565 1.92775 103.939 1.97599V2.0001Z" fill="#281A0F" stroke="#281A0F" stroke-width="0.374786"/>
<path d="M120.602 9.86166C120.867 9.16225 121.3 8.58343 121.878 8.12519C122.48 7.66696 123.057 7.42578 123.611 7.42578C124.117 7.42578 124.526 7.5946 124.815 7.90813C125.104 8.22166 125.272 8.55931 125.272 8.89696C125.272 9.11401 125.2 9.30695 125.056 9.47578C124.911 9.6446 124.719 9.71695 124.502 9.71695C124.117 9.71695 123.828 9.42754 123.611 8.84872C123.467 8.46284 123.274 8.2699 122.985 8.2699C122.648 8.2699 122.263 8.48696 121.781 8.94519C121.324 9.40343 121.011 9.86166 120.891 10.3681C120.77 10.8505 120.698 11.5258 120.698 12.394V14.1064C120.698 15.1193 120.698 15.7705 120.746 16.0358C120.77 16.3011 120.891 16.494 121.083 16.6387C121.276 16.7834 121.613 16.8558 122.119 16.8558H122.432V17.3864H117.376V16.8558H117.616C118.074 16.8558 118.411 16.7834 118.603 16.6628C118.796 16.5422 118.916 16.3493 118.965 16.1081C119.013 15.8669 119.013 15.2158 119.013 14.1064V11.4052C119.013 10.3681 119.013 9.74107 118.965 9.47578C118.941 9.21048 118.82 9.01754 118.628 8.87284C118.435 8.72813 118.098 8.65578 117.592 8.65578H117.352V8.12519C118.074 8.02872 119.037 7.81166 120.217 7.42578C120.433 8.05284 120.578 8.84872 120.602 9.86166Z" fill="#281A0F" stroke="#281A0F" stroke-width="0.374786"/>
<path d="M124.598 16.4683C124.598 16.1306 124.718 15.8412 124.959 15.6C125.2 15.3589 125.488 15.2383 125.85 15.2383C126.211 15.2383 126.5 15.3589 126.74 15.6C126.981 15.8412 127.102 16.1306 127.102 16.4683C127.102 16.8059 126.981 17.1195 126.74 17.3606C126.5 17.6018 126.187 17.7224 125.85 17.7224C125.513 17.7224 125.2 17.6018 124.959 17.3365C124.718 17.0953 124.598 16.7818 124.598 16.4442V16.4683Z" fill="#281A0F" stroke="#281A0F" stroke-width="0.374786"/>
<path d="M136.781 0.625H148.723V4.50794H148.386C148.217 2.8197 147.639 1.92735 146.797 1.445C145.906 0.986764 144.726 0.938529 143.378 0.938529H141.982V8.72852H143.017C143.571 8.72852 144.172 8.72852 144.51 8.65616C146.098 8.48734 146.821 7.66734 146.941 6.34087H147.254V11.8156H146.941C146.869 10.272 146.219 9.30734 144.534 9.13852C144.076 9.06616 143.45 9.06616 142.921 9.06616H141.982V17.025H143.546V17.3385H136.781V17.025H138.202V0.938529H136.781V0.625Z" fill="#281A0F" stroke="#281A0F" stroke-width="0.374786"/>
<path d="M151.828 0.625H163.914V4.50793H163.577C163.408 2.8197 162.855 1.92735 161.988 1.445C161.097 0.986764 159.918 0.938529 158.569 0.938529H157.028V8.72852H158.208C158.858 8.72852 159.508 8.72852 159.869 8.65616C161.458 8.48734 162.181 7.66734 162.301 6.34087H162.614V11.8156H162.301C162.229 10.2962 161.579 9.30734 159.893 9.13852C159.436 9.06616 158.738 9.06616 158.136 9.06616H157.028V17.0009H159.123C160.495 17.0009 161.699 16.8561 162.59 16.2532C163.457 15.6503 164.01 14.565 164.107 12.7079H164.444V17.3144H151.828V17.0009H153.273V0.938529H151.828V0.625Z" fill="#281A0F" stroke="#281A0F" stroke-width="0.374786"/>
<path d="M168.32 0.624407H172.606C173.208 0.624407 173.689 0.600289 173.978 0.576172C174.291 0.576172 174.556 0.576172 174.821 0.576172C177.325 0.576172 179.732 1.25146 181.466 2.57793C183.199 3.92852 184.331 5.97852 184.331 8.72792C184.331 11.8632 183.343 14.0097 181.658 15.4085C179.997 16.8314 177.662 17.4585 174.989 17.4585C174.508 17.4585 174.098 17.4344 173.617 17.4103C173.111 17.3861 172.509 17.362 171.667 17.362H168.32V17.0485H169.741V0.937936H168.32V0.624407ZM173.521 17.0485C175.495 17.2414 177.132 16.9279 178.288 15.722C179.419 14.492 180.069 12.3938 180.069 8.9691C180.069 5.5444 179.347 3.27734 178.167 2.14382C176.963 1.03441 175.326 0.841466 173.521 0.937936V17.0485Z" fill="#281A0F" stroke="#281A0F" stroke-width="0.374786"/>
<path d="M187.797 0.625H199.883V4.50793H199.546C199.377 2.8197 198.823 1.92735 197.957 1.445C197.066 0.986764 195.886 0.938529 194.538 0.938529H192.997V8.72852H194.177C194.827 8.72852 195.477 8.72852 195.838 8.65616C197.427 8.48734 198.149 7.66734 198.27 6.34087H198.583V11.8156H198.27C198.198 10.2962 197.547 9.30734 195.862 9.13852C195.405 9.06616 194.707 9.06616 194.105 9.06616H192.997V17.0009H195.092C196.464 17.0009 197.668 16.8561 198.559 16.2532C199.425 15.6503 199.979 14.565 200.075 12.7079H200.412V17.3144H187.797V17.0009H189.217V0.938529H187.797V0.625Z" fill="#281A0F" stroke="#281A0F" stroke-width="0.374786"/>
<path d="M209.509 9.37919V17.0486H210.953V17.3621H204.309V17.0486H205.729V0.962141H204.309V0.624494H208.137C208.714 0.624494 209.244 0.600377 209.774 0.552141C210.303 0.552141 210.905 0.503906 211.603 0.503906C212.663 0.503906 214.228 0.745082 215.48 1.42038C216.732 2.09567 217.695 3.20508 217.695 4.94155C217.695 6.19566 217.117 7.23272 216.202 7.93213C215.287 8.63154 214.035 9.04154 212.783 9.08978C214.685 9.11389 215.865 9.62036 216.539 10.3921C217.213 11.188 217.406 12.2492 217.406 13.3345C217.406 14.4198 217.478 15.0951 217.622 15.5533C217.743 16.0115 218.032 16.2286 218.465 16.2286C218.73 16.2286 218.922 16.0839 219.067 15.9151C219.139 15.8427 219.187 15.7462 219.211 15.6739C219.235 15.6015 219.26 15.5292 219.284 15.5051L219.548 15.6015C219.476 15.9633 219.284 16.4698 218.802 16.9039C218.321 17.338 217.598 17.6756 216.635 17.6756C214.324 17.6756 213.481 16.3251 213.481 14.1062C213.481 11.8874 213.265 10.6815 212.639 10.0786C212.013 9.45154 211.026 9.4033 209.485 9.4033L209.509 9.37919ZM209.509 9.01742C212.494 9.04154 213.818 7.4739 213.818 4.67625C213.818 3.03626 213.361 2.04743 212.615 1.49273C211.844 0.938023 210.761 0.817435 209.509 0.913906V9.01742Z" fill="#281A0F" stroke="#281A0F" stroke-width="0.374786"/>
<path d="M228.701 17.0491H230.121V17.3626H223.477V17.0491H224.921V0.938529H223.477V0.625H230.121V0.938529H228.701V17.025V17.0491Z" fill="#281A0F" stroke="#281A0F" stroke-width="0.374786"/>
<path d="M233.586 9.40297C233.586 6.50886 234.621 4.21769 236.258 2.65004C237.895 1.0824 240.231 0.238281 242.807 0.238281C244.805 0.238281 246.539 0.768869 247.791 1.54063V5.27886H247.453C247.14 1.92651 245.648 0.575928 242.999 0.575928C240.712 0.575928 239.388 1.87828 238.666 3.61475C237.895 5.35121 237.727 7.57004 237.727 9.49944C237.727 12.0559 238.064 14.0336 238.834 15.3841C239.581 16.7347 240.736 17.4341 242.446 17.4341C244.275 17.4341 245.431 16.7588 246.177 15.7218C246.924 14.6606 247.213 13.2377 247.333 11.7183H247.67V16.4936C246.924 16.9036 246.057 17.2412 245.118 17.4583C244.203 17.6753 243.24 17.7959 242.374 17.7959C239.725 17.7959 237.558 16.9759 236.042 15.5288C234.501 14.0818 233.61 12.0077 233.61 9.45121L233.586 9.40297Z" fill="#281A0F" stroke="#281A0F" stroke-width="0.374786"/>
<path d="M251.477 9.33062C251.477 6.34004 252.512 4.07298 254.173 2.55357C255.834 1.03416 258.121 0.238281 260.649 0.238281C263.49 0.238281 265.657 1.20299 267.126 2.79475C268.594 4.38651 269.341 6.60533 269.341 9.08944C269.341 12.0318 268.209 14.1783 266.5 15.6012C264.79 17.0241 262.479 17.7235 260.12 17.7235C257.544 17.7235 255.377 16.8794 253.86 15.4324C252.343 14.0094 251.477 11.8871 251.477 9.3065V9.33062ZM265.127 9.40297C265.127 6.94298 264.863 4.74827 264.14 3.15651C263.418 1.56475 262.238 0.575928 260.433 0.575928C258.94 0.575928 257.953 1.20299 257.231 2.11945C256.508 3.08416 256.099 4.33827 255.931 5.66474C255.714 6.96709 255.666 8.3418 255.666 9.40297C255.666 11.863 256.027 13.8165 256.797 15.2394C257.568 16.6624 258.723 17.41 260.36 17.41C261.781 17.41 262.792 16.9035 263.514 16.1077C264.237 15.3118 264.646 14.2024 264.839 13.0206C265.055 11.8389 265.127 10.5365 265.127 9.37886V9.40297Z" fill="#281A0F" stroke="#281A0F" stroke-width="0.374786"/>
<path d="M279.906 0.625H291.992V4.50793H291.655C291.487 2.8197 290.933 1.92735 290.066 1.445C289.175 0.986764 287.996 0.938529 286.647 0.938529H285.107V8.72852H286.286C286.936 8.72852 287.586 8.72852 287.947 8.65616C289.536 8.48734 290.259 7.66734 290.379 6.34087H290.692V11.8156H290.379C290.307 10.2962 289.657 9.30734 287.972 9.13852C287.514 9.06616 286.816 9.06616 286.214 9.06616H285.107V17.0009H287.201C288.549 17.0009 289.777 16.8561 290.668 16.2532C291.535 15.6503 292.088 14.565 292.185 12.7079H292.522V17.3144H279.906V17.0009H281.327V0.938529H279.906V0.625Z" fill="#281A0F" stroke="#281A0F" stroke-width="0.374786"/>
<path d="M299.143 15.5322C299.143 16.521 298.349 17.341 297.338 17.341C296.326 17.341 295.508 16.4969 295.508 15.5322C295.508 14.5675 296.326 13.6992 297.338 13.6992C298.349 13.6992 299.143 14.5192 299.143 15.5322Z" fill="#281A0F" stroke="#281A0F" stroke-width="0.374786"/>
<path d="M310.12 0.625H322.591V0.938529L313.996 17.025H317.343C318.691 17.025 319.943 16.8562 320.834 16.2532C321.701 15.6503 322.23 14.5891 322.327 12.732H322.664V17.3385H309.711V17.0009L318.258 0.938529H315.441C314.093 0.938529 312.913 0.986764 312.046 1.445C311.155 1.92735 310.554 2.8197 310.433 4.50794H310.096V0.625H310.12Z" fill="#281A0F" stroke="#281A0F" stroke-width="0.374786"/>
<path d="M341.707 17.0483H343.008V17.3619H336.242V17.0483H337.663L335.279 11.0431H330.103L327.358 17.0483H328.779V17.3619H325.625V17.0483H326.925L334.701 0.166016H335.014L341.707 17.0483ZM332.872 4.96542L330.223 10.7054H335.159L332.872 4.96542Z" fill="#281A0F" stroke="#281A0F" stroke-width="0.374786"/>
<path d="M352.278 17.3621H345.609V17.0486H347.03V0.962141H345.609V0.624494H349.341C349.847 0.624494 350.4 0.600377 351.05 0.552141C351.676 0.552141 352.254 0.503906 352.808 0.503906C353.506 0.503906 354.445 0.624494 355.408 0.938023C356.347 1.25155 357.262 1.75802 357.96 2.50567C358.658 3.27743 359.14 4.31449 359.14 5.68919C359.14 8.26978 358.008 9.78919 356.419 10.6092C354.83 11.4292 352.76 11.5739 350.858 11.3568V17.0486H352.278V17.3621ZM350.858 11.0433C352.567 11.1398 353.675 10.5851 354.349 9.62036C355.023 8.63154 355.264 7.28095 355.264 5.76154C355.264 3.85625 354.686 2.60214 353.867 1.85449C353.025 1.08273 351.941 0.841553 350.882 0.962141V11.0674L350.858 11.0433Z" fill="#281A0F" stroke="#281A0F" stroke-width="0.374786"/>
<path d="M374.715 17.0483H376.015V17.3619H369.25V17.0483H370.671L368.287 11.0431H363.111L360.366 17.0483H361.787V17.3619H358.633V17.0483H359.933L367.709 0.166016H368.022L374.715 17.0483ZM365.88 4.96542L363.231 10.7054H368.167L365.88 4.96542Z" fill="#281A0F" stroke="#281A0F" stroke-width="0.374786"/>
<path d="M382.083 0.962647C380.759 0.962647 379.555 1.01088 378.688 1.46912C377.798 1.95147 377.196 2.84382 377.075 4.53205H376.738V0.625H391.16V4.50793H390.822C390.654 2.86794 390.076 1.95147 389.234 1.46912C388.343 0.986764 387.187 0.938529 385.839 0.938529V17.0009H387.259V17.3144H380.639V17.0009H382.059V0.962647H382.083Z" fill="#281A0F" stroke="#281A0F" stroke-width="0.374786"/>
<path d="M407.051 17.0483H408.351V17.3619H401.586V17.0483H403.007L400.623 11.0431H395.447L392.702 17.0483H394.123V17.3619H390.969V17.0483H392.269L400.045 0.166016H400.358L407.051 17.0483ZM398.215 4.96542L395.567 10.7054H400.503L398.215 4.96542Z" fill="#281A0F" stroke="#281A0F" stroke-width="0.374786"/>
<path d="M0.78125 27.5664H508.101" stroke="#281A0F" stroke-width="0.864891"/>
<path d="M116.055 43.2695C116.513 43.2695 116.898 43.4142 117.259 43.7278C117.62 44.0413 117.789 44.4272 117.789 44.8613C117.789 45.1748 117.693 45.416 117.524 45.5848C117.331 45.7536 117.139 45.8501 116.946 45.8501C116.706 45.8501 116.537 45.7778 116.393 45.6331C116.272 45.4884 116.152 45.2231 116.055 44.8372C115.959 44.4272 115.839 44.186 115.743 44.1136C115.646 44.0413 115.502 43.9931 115.357 43.9931C114.852 43.9931 114.25 44.3789 113.552 45.1507C112.853 45.9225 112.276 46.9836 111.818 48.3583C111.361 49.733 111.12 50.8666 111.12 51.8072C111.12 52.5066 111.24 53.0372 111.481 53.3989C111.722 53.7366 112.083 53.9295 112.54 53.9295C113.046 53.9295 113.6 53.6642 114.202 53.1819C114.804 52.6754 115.309 52.1448 115.694 51.5419C115.911 51.2525 116.08 51.0836 116.2 51.0836C116.344 51.0836 116.417 51.156 116.417 51.3248C116.417 51.6142 115.959 52.2413 115.02 53.206C114.081 54.1707 112.998 54.653 111.746 54.653C110.951 54.653 110.301 54.4119 109.82 53.9295C109.338 53.4472 109.098 52.8201 109.098 52.0242C109.098 50.6736 109.507 49.2748 110.374 47.8519C111.216 46.4289 112.155 45.2954 113.19 44.4995C114.226 43.7036 115.189 43.2936 116.055 43.2936V43.2695Z" fill="#281A0F"/>
<path d="M126.5 36.5632C126.332 37.1661 125.586 39.602 124.261 43.919L121.854 51.902C121.589 52.939 121.445 53.542 121.445 53.7108C121.445 53.8555 121.493 53.9279 121.613 53.9279C121.854 53.9279 122.335 53.6384 123.058 53.0355C123.78 52.4326 124.285 51.902 124.598 51.4196C124.815 51.1061 124.96 50.9373 125.056 50.9373C125.2 50.9373 125.273 51.0096 125.273 51.1543C125.273 51.4437 124.791 52.0949 123.828 53.0837C122.865 54.0967 121.926 54.579 121.035 54.579C120.77 54.579 120.53 54.4826 120.313 54.2896C120.096 54.0967 120 53.8073 120 53.4214C120 52.8184 120.096 52.1673 120.265 51.492C120.457 50.8167 121.276 48.0914 122.769 43.3161C123.756 40.1808 124.237 38.3961 124.237 37.962C124.237 37.4796 123.732 37.2385 122.721 37.1902C122.335 37.1902 122.143 37.0938 122.143 36.9249C122.143 36.7561 122.335 36.6597 122.721 36.6597L126.5 36.5391V36.5632Z" fill="#281A0F"/>
<path d="M130.094 53.5171C130.094 53.6619 130.118 53.7824 130.19 53.8307C130.263 53.903 130.335 53.9513 130.455 53.9513C130.72 53.9513 131.105 53.8066 131.563 53.493C132.044 53.1795 132.478 52.8177 132.911 52.3595C133.104 52.1666 133.248 52.0701 133.368 52.0701C133.513 52.0701 133.609 52.1424 133.609 52.2871C133.609 52.6007 133.176 53.0589 132.309 53.686C131.442 54.313 130.624 54.6266 129.902 54.6266C129.42 54.6266 129.059 54.5301 128.818 54.3371C128.577 54.1442 128.457 53.903 128.457 53.6618C128.457 53.276 128.939 51.9254 129.902 49.586C131.105 46.6436 131.731 44.9795 131.731 44.5936C131.731 44.4489 131.707 44.3283 131.659 44.256C131.611 44.1836 131.515 44.1354 131.394 44.1354C131.033 44.1354 130.431 44.5213 129.613 45.3172C129.3 45.6307 129.059 45.7754 128.939 45.7754C128.818 45.7754 128.746 45.703 128.746 45.5583C128.746 45.3413 129.203 44.883 130.118 44.1836C131.033 43.4842 131.828 43.1466 132.526 43.1466C132.815 43.1466 133.08 43.243 133.272 43.4842C133.489 43.7013 133.585 43.9425 133.585 44.1836C133.585 44.4972 133.537 44.8107 133.417 45.1001C133.296 45.3895 132.67 46.9572 131.491 49.7548C130.576 52.1183 130.118 53.3724 130.118 53.5171H130.094ZM135.415 37.6719C135.607 37.6719 135.776 37.7442 135.945 37.8648C136.113 37.9854 136.185 38.1542 136.185 38.3472C136.185 38.6848 135.993 39.0466 135.583 39.3842C135.174 39.7219 134.38 40.2525 133.176 41.0001C131.972 41.7236 131.298 42.0854 131.154 42.0854C131.009 42.0854 130.937 42.0372 130.937 41.9166C130.937 41.8201 131.37 41.2654 132.261 40.2766C133.152 39.2878 133.778 38.6125 134.187 38.2266C134.596 37.8648 135.006 37.6719 135.415 37.6719Z" fill="#281A0F"/>
<path d="M141.334 47.8011C142.249 46.2817 143.116 45.124 143.91 44.3523C144.705 43.6046 145.451 43.2188 146.149 43.2188C146.559 43.2188 146.872 43.3635 147.088 43.6529C147.305 43.9423 147.425 44.2799 147.425 44.6899C147.425 45.1964 147.353 45.6787 147.209 46.2093C147.064 46.7399 146.703 47.777 146.125 49.3687C145.355 51.4911 144.97 52.7452 144.97 53.1311C144.97 53.4205 145.09 53.5652 145.331 53.5652C145.547 53.5652 145.909 53.3723 146.366 52.9864C146.848 52.6005 147.185 52.2146 147.401 51.8529C147.618 51.467 147.811 51.274 147.955 51.274C148.099 51.274 148.172 51.3705 148.172 51.5393C148.172 51.9011 147.738 52.504 146.848 53.3481C145.957 54.2164 145.114 54.6505 144.296 54.6505C143.477 54.6505 143.116 54.3129 143.116 53.6617C143.116 53.0105 143.742 50.9605 145.018 47.6564C145.499 46.3782 145.74 45.4135 145.74 44.7864C145.74 44.5935 145.716 44.4487 145.644 44.3282C145.572 44.2317 145.451 44.1835 145.307 44.1835C145.042 44.1835 144.56 44.5211 143.862 45.1723C143.14 45.8235 142.345 47.0052 141.431 48.6934C140.516 50.3817 139.769 51.9252 139.216 53.324C138.854 54.1923 138.614 54.6264 138.517 54.6264C137.675 54.6264 137.241 54.5299 137.241 54.2887V54.1681L139.456 47.8493C140.034 46.3058 140.299 45.2205 140.299 44.6417C140.299 44.3764 140.179 44.2558 139.938 44.2558C139.721 44.2558 139.36 44.4729 138.879 44.907C138.397 45.3411 138.012 45.727 137.723 46.1129C137.506 46.4023 137.314 46.547 137.169 46.547C137.049 46.547 136.977 46.4746 136.977 46.3299C136.977 46.0405 137.434 45.4617 138.373 44.5693C139.312 43.677 140.203 43.2188 141.069 43.2188C141.334 43.2188 141.551 43.3152 141.695 43.5082C141.84 43.7011 141.912 43.9182 141.912 44.1352C141.912 44.4729 141.695 45.7029 141.238 47.8252L141.334 47.8011Z" fill="#281A0F"/>
<path d="M153.396 53.5194C153.396 53.6641 153.42 53.7847 153.493 53.8329C153.565 53.9053 153.637 53.9535 153.757 53.9535C154.022 53.9535 154.407 53.8088 154.865 53.4953C155.346 53.1817 155.78 52.82 156.213 52.3617C156.406 52.1688 156.55 52.0723 156.671 52.0723C156.815 52.0723 156.911 52.1447 156.911 52.2894C156.911 52.6029 156.478 53.0611 155.611 53.6882C154.744 54.3153 153.926 54.6288 153.18 54.6288C152.698 54.6288 152.337 54.5323 152.096 54.3394C151.855 54.1464 151.711 53.9053 151.711 53.6641C151.711 53.2782 152.192 51.9276 153.155 49.5882C154.359 46.6459 154.985 44.9817 154.985 44.5959C154.985 44.4512 154.961 44.3306 154.913 44.2582C154.865 44.1859 154.769 44.1376 154.648 44.1376C154.263 44.1376 153.685 44.5235 152.867 45.3194C152.554 45.6329 152.313 45.7776 152.192 45.7776C152.072 45.7776 152 45.7053 152 45.5606C152 45.3435 152.457 44.8853 153.348 44.1859C154.263 43.4865 155.057 43.1488 155.78 43.1488C156.069 43.1488 156.333 43.2453 156.526 43.4865C156.743 43.7035 156.839 43.9447 156.839 44.1859C156.839 44.4994 156.791 44.8129 156.671 45.1023C156.574 45.3917 155.924 46.9594 154.744 49.757C153.83 52.1206 153.372 53.3747 153.372 53.5194H153.396ZM157.585 36.9023C157.85 36.9023 158.091 36.9988 158.284 37.1918C158.476 37.3847 158.572 37.6259 158.572 37.9153C158.572 38.2047 158.476 38.4459 158.284 38.6388C158.091 38.8318 157.85 38.9282 157.585 38.9282C157.321 38.9282 157.056 38.8318 156.863 38.6388C156.671 38.4459 156.574 38.2047 156.574 37.9153C156.574 37.6259 156.67 37.3847 156.887 37.1918C157.08 36.9988 157.321 36.9023 157.609 36.9023H157.585Z" fill="#281A0F"/>
<path d="M166.95 43.2695C167.407 43.2695 167.793 43.4142 168.154 43.7278C168.515 44.0413 168.683 44.4272 168.683 44.8613C168.683 45.1748 168.587 45.416 168.419 45.5848C168.226 45.7536 168.058 45.8501 167.841 45.8501C167.6 45.8501 167.432 45.7778 167.287 45.6331C167.167 45.4884 167.046 45.2231 166.95 44.8372C166.854 44.4272 166.733 44.186 166.637 44.1136C166.541 44.0413 166.396 43.9931 166.252 43.9931C165.746 43.9931 165.144 44.3789 164.446 45.1507C163.748 45.9225 163.17 46.9836 162.713 48.3583C162.255 49.733 162.015 50.8666 162.015 51.8072C162.015 52.5066 162.135 53.0372 162.376 53.3989C162.616 53.7366 162.978 53.9295 163.435 53.9295C163.941 53.9295 164.494 53.6642 165.096 53.1819C165.698 52.6754 166.204 52.1448 166.589 51.5419C166.806 51.2525 166.974 51.0836 167.094 51.0836C167.215 51.0836 167.311 51.156 167.311 51.3248C167.311 51.6142 166.854 52.2413 165.915 53.206C164.976 54.1707 163.892 54.653 162.641 54.653C161.846 54.653 161.196 54.4119 160.714 53.9295C160.233 53.4472 159.992 52.8201 159.992 52.0242C159.992 50.6736 160.401 49.2748 161.268 47.8519C162.111 46.4289 163.05 45.2954 164.085 44.4995C165.12 43.7036 166.083 43.2936 166.974 43.2936L166.95 43.2695Z" fill="#281A0F"/>
<path d="M181.159 43.462C180.918 43.9926 180.437 45.4396 179.69 47.7549L178.559 51.3725C178.318 52.0237 178.198 52.6025 178.198 53.0608C178.198 53.3502 178.342 53.4949 178.631 53.4949C178.824 53.4949 179.113 53.3502 179.498 53.0608C179.883 52.7714 180.244 52.4337 180.605 51.9996C180.846 51.7102 181.015 51.5655 181.111 51.5655C181.255 51.5655 181.328 51.6378 181.328 51.7825C181.328 52.0237 180.846 52.5302 179.931 53.3261C178.992 54.122 178.15 54.532 177.427 54.532C176.922 54.532 176.681 54.1943 176.681 53.519C176.681 53.0367 176.705 52.4337 176.777 51.7102C175.429 53.519 174.033 54.4114 172.588 54.4114C171.962 54.4114 171.481 54.1702 171.192 53.712C170.879 53.2537 170.734 52.7231 170.734 52.1443C170.734 50.4802 171.577 48.5508 173.214 46.4043C174.875 44.2337 176.44 43.1484 177.909 43.1484C178.294 43.1484 178.607 43.2931 178.824 43.5584C179.04 43.8237 179.185 44.2337 179.257 44.7884C179.402 44.4026 179.666 43.872 179.979 43.2449C180.268 43.2931 180.509 43.3414 180.774 43.3655C180.967 43.4137 181.063 43.4379 181.135 43.4379L181.159 43.462ZM177.187 43.8961C176.681 43.8961 176.079 44.2578 175.357 44.9814C174.635 45.7049 173.985 46.7661 173.431 48.1649C172.877 49.5637 172.588 50.7455 172.588 51.662C172.588 52.2167 172.685 52.6267 172.877 52.9161C173.07 53.2055 173.359 53.3502 173.768 53.3502C174.755 53.3502 175.766 52.4337 176.801 50.6008C177.813 48.7678 178.342 47.1037 178.342 45.6326C178.342 45.1502 178.246 44.7402 178.029 44.4267C177.813 44.089 177.548 43.9443 177.211 43.9443L177.187 43.8961Z" fill="#281A0F"/>
<path d="M205.541 36.8778C205.3 37.6978 204.698 39.4825 203.735 42.256C201.616 48.3819 200.581 51.9272 200.581 52.8437C200.581 52.9884 200.605 53.109 200.677 53.2054C200.749 53.2778 200.846 53.326 200.99 53.326C201.544 53.326 202.363 52.6507 203.398 51.3243C203.542 51.1313 203.639 51.0348 203.735 51.0348C203.783 51.0348 203.831 51.059 203.903 51.1313C203.976 51.2037 204 51.2519 204 51.3001C204 51.3966 203.759 51.7343 203.277 52.3372C202.796 52.9401 202.242 53.4466 201.592 53.8807C200.942 54.3148 200.436 54.5319 200.051 54.5319C199.762 54.5319 199.498 54.3631 199.281 54.0495C199.064 53.736 198.944 53.3501 198.944 52.8678C198.944 52.6266 198.944 52.289 199.016 51.8548C197.523 53.6637 196.103 54.5801 194.803 54.5801C194.056 54.5801 193.479 54.3631 193.093 53.9531C192.708 53.5431 192.516 52.8919 192.516 52.0719C192.516 50.2148 193.286 48.3819 194.851 46.5731C196.416 44.7643 198.029 43.8478 199.714 43.8478C200.003 43.8478 200.316 43.8478 200.605 43.9201C200.894 43.9684 201.207 44.0407 201.496 44.1613L203.157 39.3378C203.35 38.8313 203.422 38.4213 203.422 38.0837C203.422 37.8425 203.277 37.6496 203.013 37.529C202.748 37.4084 202.29 37.2878 201.64 37.1913C201.448 37.1672 201.351 37.0949 201.351 36.9502C201.351 36.8055 201.448 36.709 201.592 36.709C201.737 36.709 201.953 36.709 202.218 36.7572C203.109 36.8537 204.216 36.9019 205.613 36.9502L205.541 36.8778ZM199.425 44.3301C198.414 44.3301 197.307 45.1501 196.127 46.8143C194.947 48.4784 194.345 50.0701 194.345 51.6378C194.345 52.1925 194.466 52.699 194.682 53.1331C194.899 53.5672 195.188 53.8084 195.525 53.8084C196.031 53.8084 196.705 53.3984 197.571 52.5784C198.414 51.7584 199.16 50.649 199.786 49.2501C200.412 47.8272 200.725 46.6213 200.725 45.6325C200.725 45.2707 200.629 44.9813 200.388 44.716C200.172 44.4507 199.835 44.3301 199.425 44.3301Z" fill="#281A0F"/>
<path d="M208.936 49.7553C208.647 50.9371 208.526 51.8535 208.526 52.4565C208.526 52.8182 208.623 53.1559 208.839 53.4694C209.056 53.7588 209.345 53.9276 209.706 53.9276C210.212 53.9276 210.765 53.7106 211.343 53.2765C211.921 52.8424 212.402 52.3359 212.812 51.7088C213.004 51.3953 213.197 51.2506 213.366 51.2506C213.534 51.2506 213.606 51.3229 213.606 51.4918C213.606 51.9259 213.125 52.5529 212.186 53.3729C211.223 54.1929 210.236 54.6029 209.2 54.6029C208.406 54.6029 207.78 54.3135 207.323 53.7347C206.865 53.1559 206.648 52.4806 206.648 51.7088C206.648 50.0447 207.395 48.2359 208.887 46.21C210.38 44.2083 211.849 43.1953 213.269 43.1953C213.775 43.1953 214.184 43.3641 214.521 43.7259C214.858 44.0877 215.027 44.4735 215.027 44.8835C215.027 45.7277 214.569 46.5959 213.63 47.4882C212.691 48.3806 211.151 49.1282 208.96 49.7553H208.936ZM209.128 49.1765C210.428 48.5977 211.512 47.8741 212.402 46.9818C213.269 46.0894 213.703 45.2694 213.703 44.4977C213.703 44.3288 213.63 44.1841 213.51 44.0153C213.39 43.8465 213.221 43.7741 213.004 43.7741C212.451 43.7741 211.801 44.16 211.078 44.9077C210.356 45.6553 209.706 47.0782 209.128 49.1765Z" fill="#281A0F"/>
<path d="M232.192 43.2695C232.626 43.2695 233.035 43.4142 233.396 43.7278C233.733 44.0413 233.926 44.4272 233.926 44.8613C233.926 45.1748 233.829 45.416 233.661 45.5848C233.492 45.7536 233.3 45.8501 233.083 45.8501C232.842 45.8501 232.65 45.7778 232.529 45.6331C232.409 45.4884 232.289 45.2231 232.168 44.8372C232.072 44.4272 231.951 44.186 231.855 44.1136C231.759 44.0413 231.614 43.9931 231.47 43.9931C230.964 43.9931 230.362 44.3789 229.664 45.1507C228.966 45.9225 228.388 46.9836 227.931 48.3583C227.473 49.733 227.257 50.8666 227.257 51.8072C227.257 52.5066 227.377 53.0372 227.618 53.3989C227.859 53.7366 228.22 53.9295 228.677 53.9295C229.183 53.9295 229.736 53.6642 230.338 53.1819C230.94 52.6754 231.446 52.1448 231.831 51.5419C232.048 51.2525 232.216 51.0836 232.337 51.0836C232.457 51.0836 232.553 51.156 232.553 51.3248C232.553 51.6142 232.072 52.2413 231.157 53.206C230.218 54.1707 229.135 54.653 227.883 54.653C227.064 54.653 226.414 54.4119 225.957 53.9295C225.475 53.4472 225.234 52.8201 225.234 52.0242C225.234 50.6736 225.668 49.2748 226.51 47.8519C227.353 46.4289 228.292 45.2954 229.327 44.4995C230.362 43.7036 231.325 43.2936 232.216 43.2936L232.192 43.2695Z" fill="#281A0F"/>
<path d="M238.117 53.5194C238.117 53.6641 238.141 53.7847 238.213 53.8329C238.285 53.9053 238.358 53.9535 238.502 53.9535C238.767 53.9535 239.128 53.8088 239.61 53.4953C240.091 53.1817 240.525 52.82 240.958 52.3617C241.15 52.1688 241.295 52.0723 241.415 52.0723C241.56 52.0723 241.656 52.1447 241.656 52.2894C241.656 52.6029 241.223 53.0611 240.356 53.6882C239.489 54.3153 238.671 54.6288 237.948 54.6288C237.467 54.6288 237.106 54.5323 236.865 54.3394C236.624 54.1464 236.504 53.9053 236.504 53.6641C236.504 53.2782 236.985 51.9276 237.924 49.5882C239.128 46.6459 239.754 44.9817 239.754 44.5959C239.754 44.4512 239.73 44.3306 239.658 44.2582C239.61 44.1859 239.513 44.1376 239.393 44.1376C239.032 44.1376 238.43 44.5235 237.611 45.3194C237.298 45.6329 237.058 45.7776 236.937 45.7776C236.817 45.7776 236.745 45.7053 236.745 45.5606C236.745 45.3435 237.202 44.8853 238.093 44.1859C239.008 43.4865 239.802 43.1488 240.5 43.1488C240.789 43.1488 241.054 43.2453 241.247 43.4865C241.463 43.7035 241.56 43.9447 241.56 44.1859C241.56 44.4994 241.512 44.8129 241.391 45.1023C241.295 45.3917 240.645 46.9594 239.465 49.757C238.55 52.1206 238.069 53.3747 238.069 53.5194H238.117ZM242.306 36.9023C242.595 36.9023 242.812 36.9988 243.028 37.1918C243.221 37.3847 243.317 37.6259 243.317 37.9153C243.317 38.2047 243.221 38.4459 243.028 38.6388C242.836 38.8318 242.595 38.9282 242.306 38.9282C242.017 38.9282 241.776 38.8318 241.584 38.6388C241.391 38.4459 241.295 38.2047 241.295 37.9153C241.295 37.6259 241.391 37.3847 241.584 37.1918C241.801 36.9988 242.041 36.9023 242.306 36.9023Z" fill="#281A0F"/>
<path d="M249.485 46.912C250.207 45.682 250.905 44.7896 251.555 44.1626C252.205 43.5596 252.807 43.2461 253.385 43.2461C253.77 43.2461 254.083 43.3667 254.324 43.5837C254.589 43.8008 254.709 44.1143 254.709 44.4761C254.709 44.7896 254.613 45.079 254.396 45.3443C254.203 45.6096 253.939 45.7543 253.626 45.7543C253.072 45.7543 252.735 45.5131 252.59 45.0067C252.494 44.669 252.398 44.5243 252.229 44.5243C251.964 44.5243 251.507 44.9584 250.881 45.8026C250.255 46.6467 249.629 47.7079 248.979 49.0102L247.149 54.6055H245.753H245.56C245.608 54.4125 245.849 53.6167 246.331 52.1937C247.583 47.4908 248.209 44.8861 248.209 44.452C248.209 44.2832 248.136 44.2108 248.016 44.2108C247.847 44.2108 247.534 44.4279 247.077 44.8861C246.62 45.3202 246.234 45.8026 245.897 46.2849C245.632 46.6708 245.416 46.8637 245.271 46.8637C245.127 46.8637 245.055 46.7914 245.055 46.6467C245.055 46.4296 245.512 45.8267 246.403 44.7896C247.294 43.7526 248.088 43.2461 248.762 43.2461C249.123 43.2461 249.388 43.3426 249.557 43.5596C249.749 43.7767 249.822 43.9937 249.822 44.2349C249.822 44.5002 249.773 44.9343 249.677 45.5132C249.653 45.7061 249.581 46.1884 249.485 46.912Z" fill="#281A0F"/>
<path d="M268.022 43.4384C267.877 43.8725 267.588 44.6925 267.155 45.8501C265.662 49.7813 264.916 52.193 264.916 53.0854C264.916 53.206 264.94 53.3025 264.988 53.3507C265.036 53.3989 265.108 53.4472 265.229 53.4472C265.494 53.4472 265.855 53.2301 266.312 52.7478C266.77 52.2895 267.107 51.8554 267.396 51.4454C267.588 51.1319 267.757 50.963 267.901 50.963C268.046 50.963 268.118 51.0354 268.118 51.1801C268.118 51.5419 267.66 52.193 266.721 53.1336C265.807 54.0742 264.988 54.5566 264.266 54.5566C263.977 54.5566 263.736 54.4601 263.592 54.243C263.447 54.026 263.375 53.7125 263.375 53.2783C263.375 52.4342 263.568 51.3972 263.929 50.1913C262.051 53.0854 260.438 54.5325 259.138 54.5325C258.801 54.5325 258.512 54.3877 258.271 54.1225C258.006 53.833 257.886 53.5195 257.886 53.1336C257.886 52.7478 257.934 52.3619 258.03 51.976C258.126 51.5901 258.488 50.4807 259.089 48.6236C259.691 46.7907 260.077 45.7054 260.197 45.3919C260.341 45.0301 260.438 44.6925 260.438 44.4272C260.438 44.3307 260.438 44.2584 260.365 44.2101C260.317 44.1619 260.245 44.1378 260.149 44.1378C259.788 44.1378 259.089 44.7166 258.126 45.8984C257.741 46.3566 257.5 46.5736 257.38 46.5736C257.26 46.5736 257.188 46.5254 257.188 46.4048C257.188 46.0913 257.645 45.4883 258.536 44.6201C259.427 43.7278 260.221 43.2695 260.919 43.2695C261.232 43.2695 261.521 43.3901 261.762 43.6554C262.003 43.9207 262.123 44.2101 262.123 44.5478C262.123 45.0301 261.834 45.9707 261.28 47.3454C260.149 50.1672 259.571 52.0001 259.571 52.8925C259.571 53.0613 259.619 53.206 259.715 53.3507C259.812 53.4954 259.908 53.5677 260.052 53.5677C260.221 53.5677 260.486 53.4472 260.823 53.2301C261.16 53.013 261.714 52.3619 262.508 51.3007C263.303 50.2395 264.025 49.0095 264.675 47.6348L266.649 43.4384C266.794 43.3901 266.962 43.366 267.131 43.366C267.371 43.366 267.684 43.366 268.046 43.4384H268.022Z" fill="#281A0F"/>
<path d="M280.375 45.0531C280.616 45.4389 280.712 45.8972 280.712 46.4036C280.712 47.1754 280.52 47.923 280.159 48.6225C279.773 49.3219 279.268 49.9007 278.642 50.383C277.992 50.8654 277.39 51.1548 276.836 51.2995C276.282 51.4201 275.608 51.5166 274.814 51.5166C273.297 51.5407 272.527 51.7819 272.527 52.2642C272.527 52.7707 273.297 53.1807 274.862 53.4701C276.451 53.7595 277.558 54.0007 278.209 54.266C278.859 54.5072 279.364 54.893 279.725 55.3754C280.086 55.8577 280.279 56.3883 280.279 56.943C280.279 58.0524 279.677 59.0654 278.449 60.006C277.221 60.9224 275.656 61.4048 273.755 61.4048C272.262 61.4048 271.058 61.1154 270.191 60.5848C269.325 60.0542 268.867 59.3789 268.867 58.6313C268.867 57.956 269.228 57.2324 269.975 56.5089C270.721 55.7854 271.66 55.1824 272.816 54.7483C271.78 54.3624 271.251 53.7836 271.251 53.036C271.251 52.6019 271.443 52.1919 271.853 51.8542C272.238 51.4925 272.864 51.2513 273.682 51.1066C273.201 50.6966 272.84 50.2625 272.575 49.8042C272.334 49.346 272.214 48.8395 272.214 48.3089C272.214 46.9342 272.719 45.7525 273.755 44.7395C274.766 43.7266 275.994 43.2201 277.366 43.2201C277.944 43.2201 278.473 43.3407 278.907 43.5578C279.34 43.7989 279.749 44.1366 280.062 44.6189C280.929 43.6542 281.675 43.1719 282.349 43.1719C282.759 43.1719 283.12 43.2925 283.409 43.5578C283.698 43.8231 283.842 44.1125 283.842 44.4501C283.842 44.6672 283.77 44.8842 283.626 45.1013C283.481 45.3183 283.264 45.4148 283.024 45.4148C282.711 45.4148 282.422 45.2219 282.133 44.8601C281.868 44.5225 281.603 44.3536 281.411 44.3536C281.17 44.3536 280.833 44.6189 280.399 45.1254L280.375 45.0531ZM273.706 55.086C272.599 55.2789 271.804 55.713 271.275 56.4124C270.745 57.1119 270.48 57.8113 270.48 58.5107C270.48 59.2101 270.793 59.7407 271.395 60.1748C272.021 60.6089 272.888 60.826 274.019 60.826C275.368 60.826 276.475 60.4883 277.39 59.8371C278.305 59.186 278.738 58.4624 278.738 57.6424C278.738 57.0154 278.449 56.5089 277.871 56.1472C277.294 55.7854 276.042 55.4477 274.14 55.1342L273.706 55.0619V55.086ZM277.197 43.7025C276.331 43.7025 275.584 44.2331 274.91 45.2701C274.26 46.3313 273.923 47.513 273.923 48.8878C273.923 49.5389 274.092 50.0454 274.429 50.4072C274.766 50.7689 275.151 50.9377 275.584 50.9377C276.499 50.9377 277.27 50.383 277.896 49.2495C278.521 48.116 278.834 47.0066 278.834 45.9213C278.834 45.2219 278.69 44.6913 278.377 44.3054C278.064 43.9195 277.679 43.7266 277.197 43.7266V43.7025Z" fill="#281A0F"/>
<path d="M287.207 53.5171C287.207 53.6619 287.231 53.7824 287.303 53.8307C287.375 53.903 287.448 53.9513 287.592 53.9513C287.857 53.9513 288.218 53.8066 288.699 53.493C289.181 53.1795 289.614 52.8177 290.072 52.3595C290.264 52.1666 290.409 52.0701 290.529 52.0701C290.674 52.0701 290.77 52.1424 290.77 52.2871C290.77 52.6007 290.337 53.0589 289.47 53.686C288.603 54.313 287.785 54.6266 287.038 54.6266C286.557 54.6266 286.196 54.5301 285.955 54.3371C285.714 54.1442 285.594 53.903 285.594 53.6618C285.594 53.276 286.075 51.9254 287.014 49.586C288.218 46.6436 288.844 44.9795 288.844 44.5936C288.844 44.4489 288.82 44.3283 288.748 44.256C288.699 44.1836 288.603 44.1354 288.483 44.1354C288.122 44.1354 287.52 44.5213 286.701 45.3172C286.388 45.6307 286.147 45.7754 286.027 45.7754C285.907 45.7754 285.835 45.703 285.835 45.5583C285.835 45.3413 286.292 44.883 287.183 44.1836C288.098 43.4842 288.892 43.1466 289.59 43.1466C289.879 43.1466 290.144 43.243 290.337 43.4842C290.553 43.7013 290.65 43.9425 290.65 44.1836C290.65 44.4972 290.601 44.8107 290.481 45.1001C290.385 45.3895 289.735 46.9572 288.555 49.7548C287.64 52.1183 287.159 53.3724 287.159 53.5171H287.207ZM292.528 37.6719C292.72 37.6719 292.889 37.7442 293.057 37.8648C293.226 37.9854 293.322 38.1542 293.322 38.3472C293.322 38.6848 293.129 39.0466 292.72 39.3842C292.311 39.7219 291.516 40.2525 290.313 41.0001C289.109 41.7236 288.435 42.0854 288.29 42.0854C288.146 42.0854 288.074 42.0372 288.074 41.9166C288.074 41.8201 288.507 41.2654 289.398 40.2766C290.288 39.2878 290.914 38.6125 291.324 38.2266C291.733 37.8648 292.142 37.6719 292.552 37.6719H292.528Z" fill="#281A0F"/>
<path d="M304.542 43.462C304.301 43.9926 303.82 45.4396 303.073 47.7549L301.942 51.3725C301.701 52.0237 301.581 52.6025 301.581 53.0608C301.581 53.3502 301.725 53.4949 302.014 53.4949C302.207 53.4949 302.495 53.3502 302.881 53.0608C303.266 52.7714 303.651 52.4337 304.012 51.9996C304.253 51.7102 304.422 51.5655 304.518 51.5655C304.662 51.5655 304.735 51.6378 304.735 51.7825C304.735 52.0237 304.253 52.5302 303.314 53.3261C302.375 54.122 301.532 54.532 300.81 54.532C300.305 54.532 300.064 54.1943 300.064 53.519C300.064 53.0367 300.088 52.4337 300.16 51.7102C298.836 53.519 297.44 54.4114 295.971 54.4114C295.345 54.4114 294.888 54.1702 294.575 53.712C294.286 53.2537 294.117 52.7231 294.117 52.1443C294.117 50.4802 294.936 48.5508 296.597 46.4043C298.258 44.2337 299.823 43.1484 301.292 43.1484C301.677 43.1484 301.99 43.2931 302.207 43.5584C302.423 43.8237 302.568 44.2337 302.64 44.7884C302.784 44.4026 303.049 43.872 303.386 43.2449C303.651 43.2931 303.916 43.3414 304.181 43.3655C304.373 43.4137 304.494 43.4379 304.542 43.4379V43.462ZM300.569 43.8961C300.064 43.8961 299.462 44.2578 298.74 44.9814C298.017 45.7049 297.367 46.7661 296.814 48.1649C296.26 49.5637 295.971 50.7455 295.971 51.662C295.971 52.2167 296.067 52.6267 296.26 52.9161C296.453 53.2055 296.741 53.3502 297.151 53.3502C298.162 53.3502 299.173 52.4337 300.184 50.6008C301.195 48.7678 301.725 47.1037 301.725 45.6326C301.725 45.1502 301.629 44.7402 301.412 44.4267C301.195 44.089 300.931 43.9443 300.594 43.9443L300.569 43.8961Z" fill="#281A0F"/>
<path d="M319.273 44.0165L320.429 40.0371C321.031 40.0371 321.609 40.0853 322.114 40.1577L321.127 43.4859C321.561 43.3895 321.946 43.3653 322.283 43.3653C323.463 43.3653 324.353 43.7271 324.931 44.4747C325.533 45.2224 325.822 46.0665 325.822 47.0553C325.822 48.9847 325.1 50.6006 323.655 51.9512C322.211 53.2777 320.26 54.1459 317.781 54.5318C316.818 57.3536 316.312 59.1383 316.312 59.9341C316.312 60.4888 316.866 60.8265 317.973 60.9471C318.19 60.9471 318.286 61.0435 318.286 61.1641C318.286 61.333 318.19 61.4294 317.949 61.4294L315.108 61.3571C314.651 61.3571 314.169 61.3571 313.688 61.4294C313.062 61.4777 312.58 61.5018 312.267 61.5018C312.027 61.5018 311.906 61.4294 311.906 61.2606C311.906 61.0918 312.099 60.9953 312.46 60.9712C313.062 60.9471 313.495 60.8024 313.832 60.5371C314.169 60.2718 314.458 59.7412 314.747 58.9453C315.036 58.1253 315.638 56.1477 316.577 53.0124L319.009 44.8365C318.551 45.0777 317.997 45.4636 317.371 46.0183C316.721 46.573 316.264 47.0312 315.999 47.393C315.662 47.8271 315.445 48.0442 315.325 48.0442C315.205 48.0442 315.132 47.9718 315.132 47.8271C315.132 47.5377 315.542 46.983 316.384 46.163C317.227 45.343 318.19 44.6195 319.249 44.0165H319.273ZM318.118 53.7118C318.334 53.7359 318.503 53.76 318.575 53.76C319.61 53.76 320.742 53.1812 322.018 52.0236C323.27 50.8659 323.92 49.3706 323.92 47.5136C323.92 46.2595 323.703 45.3912 323.222 44.8365C322.764 44.3059 322.211 44.0165 321.561 44.0165C321.392 44.0165 321.199 44.0406 320.983 44.113L318.118 53.6877V53.7118Z" fill="#281A0F"/>
<path d="M336.102 36.5632C335.933 37.1661 335.187 39.602 333.863 43.919L331.455 51.902C331.191 52.939 331.07 53.542 331.07 53.7108C331.07 53.8555 331.118 53.9279 331.239 53.9279C331.479 53.9279 331.961 53.6384 332.683 53.0355C333.405 52.4326 333.911 51.902 334.224 51.4196C334.441 51.1061 334.585 50.9373 334.682 50.9373C334.826 50.9373 334.898 51.0096 334.898 51.1543C334.898 51.4437 334.417 52.0949 333.454 53.0837C332.491 54.0967 331.552 54.579 330.661 54.579C330.396 54.579 330.155 54.4826 329.939 54.2896C329.722 54.0967 329.602 53.8073 329.602 53.4214C329.602 52.8184 329.698 52.1673 329.866 51.492C330.059 50.8167 330.878 48.0914 332.37 43.3161C333.357 40.1808 333.839 38.3961 333.839 37.962C333.839 37.4796 333.333 37.2385 332.322 37.1902C331.937 37.1902 331.744 37.0938 331.744 36.9249C331.744 36.7561 331.937 36.6597 332.322 36.6597L336.102 36.5391V36.5632Z" fill="#281A0F"/>
<path d="M347.972 43.4601C347.731 43.9907 347.249 45.4377 346.503 47.753L345.371 51.3707C345.131 52.0219 345.01 52.6007 345.01 53.0589C345.01 53.3483 345.155 53.493 345.444 53.493C345.636 53.493 345.925 53.3483 346.31 53.0589C346.696 52.7695 347.081 52.4319 347.442 51.9977C347.683 51.7083 347.851 51.5636 347.947 51.5636C348.092 51.5636 348.164 51.636 348.164 51.7807C348.164 52.0219 347.683 52.5283 346.744 53.3242C345.805 54.1201 344.962 54.5301 344.24 54.5301C343.734 54.5301 343.494 54.1924 343.494 53.5171C343.494 53.0348 343.518 52.4319 343.59 51.7083C342.266 53.5171 340.869 54.4095 339.401 54.4095C338.775 54.4095 338.317 54.1683 338.004 53.7101C337.715 53.2519 337.547 52.7213 337.547 52.1424C337.547 50.4783 338.365 48.5489 340.027 46.4024C341.688 44.2319 343.253 43.1466 344.721 43.1466C345.107 43.1466 345.42 43.2913 345.636 43.5566C345.853 43.8219 345.997 44.2319 346.07 44.7866C346.214 44.4007 346.479 43.8701 346.816 43.243C347.081 43.2913 347.346 43.3395 347.61 43.3636C347.803 43.4119 347.923 43.436 347.972 43.436V43.4601ZM343.999 43.8942C343.494 43.8942 342.892 44.256 342.169 44.9795C341.447 45.703 340.797 46.7642 340.243 48.163C339.69 49.5619 339.401 50.7436 339.401 51.6601C339.401 52.2148 339.497 52.6248 339.69 52.9142C339.882 53.2036 340.171 53.3483 340.58 53.3483C341.592 53.3483 342.579 52.4319 343.614 50.5989C344.625 48.766 345.155 47.1019 345.155 45.6307C345.155 45.1483 345.058 44.7383 344.842 44.4248C344.625 44.0872 344.36 43.9425 344.023 43.9425L343.999 43.8942ZM347.297 37.6719C347.49 37.6719 347.659 37.7442 347.827 37.8648C347.996 37.9854 348.092 38.1542 348.092 38.3472C348.092 38.6848 347.899 39.0466 347.49 39.3842C347.081 39.7219 346.286 40.2525 345.058 41.0001C343.855 41.7236 343.181 42.0854 343.036 42.0854C342.892 42.0854 342.819 42.0372 342.819 41.9166C342.819 41.8201 343.253 41.2654 344.144 40.2766C345.034 39.2878 345.66 38.6125 346.07 38.2266C346.479 37.8648 346.888 37.6719 347.297 37.6719Z" fill="#281A0F"/>
<path d="M357.295 50.8895C357.295 51.9025 356.934 52.7948 356.187 53.5424C355.465 54.2901 354.598 54.6519 353.611 54.6519C352.769 54.6519 352.094 54.4348 351.613 53.9524C351.131 53.4942 350.891 53.0601 350.891 52.6742C350.891 52.4089 350.987 52.1677 351.18 51.9266C351.372 51.6854 351.613 51.5648 351.926 51.5648C352.215 51.5648 352.431 51.6613 352.6 51.8301C352.769 51.9989 352.865 52.216 352.865 52.4572C352.865 52.5777 352.817 52.7466 352.744 52.9395C352.672 53.1324 352.624 53.2772 352.624 53.3736C352.624 53.5907 352.72 53.7595 352.913 53.8801C353.106 54.0007 353.394 54.0489 353.78 54.0489C354.43 54.0489 354.935 53.856 355.272 53.4942C355.634 53.1324 355.802 52.6742 355.802 52.1677C355.802 51.6613 355.465 50.9377 354.791 50.0213C353.707 48.5501 353.154 47.3442 353.154 46.4519C353.154 45.656 353.467 44.9083 354.069 44.2089C354.671 43.5095 355.441 43.1719 356.308 43.1719C356.934 43.1719 357.487 43.3407 357.969 43.7025C358.45 44.0642 358.691 44.4501 358.691 44.8601C358.691 45.1495 358.595 45.3666 358.426 45.5836C358.234 45.8007 358.017 45.8972 357.776 45.8972C357.295 45.8972 357.054 45.6319 357.054 45.1254V44.426C357.054 44.2331 356.958 44.0642 356.741 43.9195C356.5 43.7989 356.259 43.7266 356.019 43.7266C355.634 43.7266 355.272 43.8472 354.935 44.1366C354.598 44.4019 354.43 44.7878 354.43 45.2942C354.43 45.8007 354.911 46.693 355.898 47.9472C356.837 49.1289 357.295 50.1177 357.295 50.8895Z" fill="#281A0F"/>
<path d="M365.938 44.0415C365.865 44.2827 365.649 44.9821 365.264 46.0915C363.988 49.7091 363.362 51.928 363.362 52.7238C363.362 53.2303 363.554 53.4956 363.939 53.4956C364.565 53.4956 365.528 52.7721 366.78 51.3009C366.949 51.108 367.093 51.0115 367.214 51.0115C367.358 51.0115 367.454 51.0838 367.454 51.2044C367.454 51.4215 366.925 52.0486 365.865 53.0615C364.806 54.0744 363.699 54.5809 362.543 54.5809C362.158 54.5809 361.845 54.4603 361.652 54.2433C361.46 54.0262 361.363 53.785 361.363 53.5197C361.363 52.9409 361.556 52.145 361.917 51.1321C361.941 51.0597 362.736 48.7203 364.276 44.1139H363.073H362.23C362.11 44.1139 362.037 44.0415 362.037 43.9209C362.037 43.6797 362.061 43.535 362.11 43.4868C362.158 43.4386 362.399 43.4144 362.808 43.3662C363.217 43.3421 363.795 43.318 364.517 43.318C364.734 42.5944 364.999 41.7745 365.312 40.8821L365.817 39.4109C365.817 39.4109 365.889 39.3145 365.962 39.3145C366.275 39.3145 366.564 39.3627 366.877 39.435C367.165 39.5315 367.31 39.6039 367.31 39.7003V39.7968L366.106 43.3903L367.695 43.4386C368.225 43.4386 368.49 43.4627 368.514 43.4868C368.514 43.4868 368.538 43.535 368.538 43.5833C368.538 43.9692 368.466 44.1621 368.345 44.1621L367.382 44.0897L365.938 44.0174V44.0415Z" fill="#281A0F"/>
<path d="M372.34 53.5194C372.34 53.6641 372.364 53.7847 372.436 53.8329C372.508 53.9053 372.58 53.9535 372.725 53.9535C372.99 53.9535 373.351 53.8088 373.832 53.4953C374.314 53.1817 374.747 52.82 375.181 52.3617C375.373 52.1688 375.518 52.0723 375.638 52.0723C375.782 52.0723 375.879 52.1447 375.879 52.2894C375.879 52.6029 375.445 53.0611 374.579 53.6882C373.712 54.3153 372.893 54.6288 372.171 54.6288C371.69 54.6288 371.328 54.5323 371.088 54.3394C370.847 54.1464 370.727 53.9053 370.727 53.6641C370.727 53.2782 371.208 51.9276 372.147 49.5882C373.351 46.6459 373.977 44.9817 373.977 44.5959C373.977 44.4512 373.953 44.3306 373.88 44.2582C373.832 44.1859 373.736 44.1376 373.616 44.1376C373.254 44.1376 372.653 44.5235 371.834 45.3194C371.521 45.6329 371.28 45.7776 371.16 45.7776C371.04 45.7776 370.967 45.7053 370.967 45.5606C370.967 45.3435 371.425 44.8853 372.316 44.1859C373.23 43.4865 374.025 43.1488 374.747 43.1488C375.036 43.1488 375.301 43.2453 375.494 43.4865C375.71 43.7035 375.807 43.9447 375.807 44.1859C375.807 44.4994 375.758 44.8129 375.638 45.1023C375.542 45.3917 374.892 46.9594 373.712 49.757C372.797 52.1206 372.316 53.3747 372.316 53.5194H372.34ZM376.529 36.9023C376.818 36.9023 377.034 36.9988 377.251 37.1918C377.444 37.3847 377.54 37.6259 377.54 37.9153C377.54 38.2047 377.444 38.4459 377.251 38.6388C377.058 38.8318 376.818 38.9282 376.529 38.9282C376.24 38.9282 375.999 38.8318 375.807 38.6388C375.614 38.4459 375.518 38.2047 375.518 37.9153C375.518 37.6259 375.614 37.3847 375.807 37.1918C376.023 36.9988 376.24 36.9023 376.529 36.9023Z" fill="#281A0F"/>
<path d="M385.895 43.2695C386.329 43.2695 386.738 43.4142 387.099 43.7278C387.436 44.0413 387.629 44.4272 387.629 44.8613C387.629 45.1748 387.532 45.416 387.364 45.5848C387.195 45.7536 387.003 45.8501 386.786 45.8501C386.545 45.8501 386.353 45.7778 386.232 45.6331C386.112 45.4884 385.992 45.2231 385.871 44.8372C385.775 44.4272 385.655 44.186 385.558 44.1136C385.462 44.0413 385.318 43.9931 385.173 43.9931C384.667 43.9931 384.066 44.3789 383.367 45.1507C382.669 45.9225 382.091 46.9836 381.634 48.3583C381.177 49.733 380.96 50.8666 380.96 51.8072C380.96 52.5066 381.08 53.0372 381.321 53.3989C381.562 53.7366 381.899 53.9295 382.38 53.9295C382.886 53.9295 383.44 53.6642 384.042 53.1819C384.643 52.6754 385.149 52.1448 385.534 51.5419C385.751 51.2525 385.919 51.0836 386.04 51.0836C386.16 51.0836 386.256 51.156 386.256 51.3248C386.256 51.6142 385.775 52.2413 384.86 53.206C383.921 54.1707 382.838 54.653 381.586 54.653C380.767 54.653 380.117 54.4119 379.66 53.9295C379.178 53.4472 378.938 52.8201 378.938 52.0242C378.938 50.6736 379.371 49.2748 380.214 47.8519C381.056 46.4289 381.995 45.2954 383.03 44.4995C384.066 43.7036 385.029 43.2936 385.919 43.2936L385.895 43.2695Z" fill="#281A0F"/>
<path d="M400.074 43.462C399.833 43.9926 399.352 45.4396 398.605 47.7549L397.474 51.3725C397.233 52.0237 397.113 52.6025 397.113 53.0608C397.113 53.3502 397.257 53.4949 397.546 53.4949C397.738 53.4949 398.027 53.3502 398.413 53.0608C398.798 52.7714 399.159 52.4337 399.52 51.9996C399.761 51.7102 399.929 51.5655 400.026 51.5655C400.17 51.5655 400.242 51.6378 400.242 51.7825C400.242 52.0237 399.761 52.5302 398.822 53.3261C397.883 54.122 397.04 54.532 396.318 54.532C395.812 54.532 395.572 54.1943 395.572 53.519C395.572 53.0367 395.596 52.4337 395.668 51.7102C394.344 53.519 392.947 54.4114 391.479 54.4114C390.853 54.4114 390.395 54.1702 390.082 53.712C389.794 53.2537 389.625 52.7231 389.625 52.1443C389.625 50.4802 390.444 48.5508 392.105 46.4043C393.766 44.2337 395.331 43.1484 396.8 43.1484C397.185 43.1484 397.498 43.2931 397.714 43.5584C397.931 43.8237 398.076 44.2337 398.148 44.7884C398.292 44.4026 398.557 43.872 398.894 43.2449C399.183 43.2931 399.424 43.3414 399.689 43.3655C399.857 43.4137 400.002 43.4379 400.05 43.4379L400.074 43.462ZM396.101 43.8961C395.596 43.8961 394.994 44.2578 394.272 44.9814C393.549 45.7049 392.899 46.7661 392.346 48.1649C391.792 49.5637 391.503 50.7455 391.503 51.662C391.503 52.2167 391.599 52.6267 391.792 52.9161C391.984 53.2055 392.273 53.3502 392.683 53.3502C393.694 53.3502 394.705 52.4337 395.716 50.6008C396.727 48.7678 397.257 47.1037 397.257 45.6326C397.257 45.1502 397.161 44.7402 396.944 44.4267C396.727 44.089 396.462 43.9443 396.125 43.9443L396.101 43.8961Z" fill="#281A0F"/>
</g>
<defs>
<clipPath id="clip0_1674_528">
<rect width="508.5" height="61.5" fill="white"/>
</clipPath>
</defs>
</svg>
