<svg width="160" height="26" viewBox="0 0 160 26" fill="none" xmlns="http://www.w3.org/2000/svg">
<path d="M14 20.8958L22.343 26L20.129 16.38L27.5 9.90737L17.7935 9.07263L14 0L10.2065 9.07263L0.5 9.90737L7.871 16.38L5.657 26L14 20.8958Z" fill="#BCC090"/>
<path d="M47 20.8958L55.343 26L53.129 16.38L60.5 9.90737L50.7935 9.07263L47 0L43.2065 9.07263L33.5 9.90737L40.871 16.38L38.657 26L47 20.8958Z" fill="#BCC090"/>
<path d="M80 20.8958L88.343 26L86.129 16.38L93.5 9.90737L83.7935 9.07263L80 0L76.2065 9.07263L66.5 9.90737L73.871 16.38L71.657 26L80 20.8958Z" fill="#BCC090"/>
<path d="M113 20.8958L121.343 26L119.129 16.38L126.5 9.90737L116.794 9.07263L113 0L109.207 9.07263L99.5 9.90737L106.871 16.38L104.657 26L113 20.8958Z" fill="#BCC090"/>
<path d="M146 20.8958L154.343 26L152.129 16.38L159.5 9.90737L149.794 9.07263L146 0L142.207 9.07263L132.5 9.90737L139.871 16.38L137.657 26L146 20.8958Z" fill="#BCC090"/>
</svg>
