<?xml version="1.0" standalone="no"?>
<!DOCTYPE svg PUBLIC "-//W3C//DTD SVG 20010904//EN"
 "http://www.w3.org/TR/2001/REC-SVG-20010904/DTD/svg10.dtd">
<svg version="1.0" xmlns="http://www.w3.org/2000/svg"
 width="400.000000pt" height="400.000000pt" viewBox="0 0 400.000000 400.000000"
 preserveAspectRatio="xMidYMid meet">
<metadata>
Created by potrace 1.14, written by Peter Selinger 2001-2017
</metadata>
<g transform="translate(0.000000,400.000000) scale(0.100000,-0.100000)"
fill="#000000" stroke="none">
<path d="M2860 3614 c-129 -27 -215 -59 -346 -128 -166 -88 -266 -165 -417
-320 -276 -284 -435 -647 -478 -1096 -27 -289 23 -481 149 -573 63 -46 113
-61 198 -61 123 1 235 70 282 174 30 67 41 213 42 552 0 251 22 563 46 672 39
173 112 318 214 429 65 71 258 231 369 306 102 69 91 77 -59 45z"/>
<path d="M1397 3167 c80 -103 119 -160 148 -221 36 -76 105 -254 105 -272 0
-6 8 -18 18 -27 17 -16 19 -14 36 41 18 56 63 140 118 216 15 21 28 42 28 45
0 10 -130 106 -196 146 -55 33 -224 95 -260 95 -13 0 -13 -3 3 -23z"/>
</g>
</svg>
