<svg width="75" height="67" viewBox="0 0 75 67" fill="none" xmlns="http://www.w3.org/2000/svg">
<g clip-path="url(#clip0_941_269)">
<path d="M27.5012 57.1955C12.7905 54.5222 1.54581 44.2722 0.148438 31.6884C5.11038 23.2682 18.0078 20.5342 27.2677 19.6836C17.8217 22.7786 11.1997 29.9944 11.1997 38.4038C11.1997 46.8133 17.9312 54.1506 27.5012 57.1955Z" fill="#9C9C9C"/>
<path d="M34.4782 0.199219V17.8937C26.9076 17.9581 7.77858 19.1696 0.00364849 29.3053C0 29.2159 0 29.1266 0 29.0372C0 13.2834 15.3784 0.481559 34.4782 0.199219Z" fill="#9C9C9C"/>
<path d="M46.8984 9.60156C61.6091 12.2749 72.8538 22.5249 74.2512 35.1087C69.2892 43.5289 56.3918 46.2629 47.1319 47.1135C56.5779 44.0185 63.1999 36.8027 63.1999 28.3933C63.1999 19.9838 56.4684 12.6465 46.8984 9.60156Z" fill="#9C9C9C"/>
<path d="M39.9219 66.5983V48.9037C47.4925 48.8394 66.6215 47.6278 74.3965 37.4922C74.4001 37.5815 74.4001 37.6709 74.4001 37.7602C74.4001 53.5141 59.0217 66.3159 39.9219 66.5983Z" fill="#9C9C9C"/>
</g>
<defs>
<clipPath id="clip0_941_269">
<rect width="74.4" height="66.4" fill="white" transform="translate(0 0.199219)"/>
</clipPath>
</defs>
</svg>
