<svg width="74" height="75" viewBox="0 0 74 75" fill="none" xmlns="http://www.w3.org/2000/svg">
<g clip-path="url(#clip0_941_257)">
<path d="M37.0211 74.5975C35.127 74.5975 33.1876 74.4666 31.1977 74.203C24.7923 73.3545 18.9874 70.7935 13.9495 66.5916C3.11344 57.5569 -1.44504 45.8694 0.398538 31.8505C1.41957 24.0861 4.84263 17.1821 10.5735 11.3307C16.1698 5.61699 22.9352 2.06296 30.6846 0.768884C31.4904 0.634545 32.3028 0.510409 33.09 0.389674C33.4483 0.335258 33.8066 0.279142 34.1632 0.224726L34.3297 0.199219H39.1792L39.3289 0.219625C39.6367 0.262137 39.9446 0.304649 40.2524 0.345461C40.9319 0.437288 41.6367 0.530815 42.3415 0.646449C48.8613 1.71776 54.6545 4.277 59.5595 8.25616C66.9001 14.213 71.4317 21.9298 73.0246 31.1941C73.1693 32.0325 73.2921 32.8759 73.4098 33.6904C73.4636 34.0646 73.5192 34.4387 73.5763 34.8128L73.6016 34.9794V39.8802L73.5814 40.0316C73.5393 40.3428 73.4973 40.654 73.4569 40.9669C73.3661 41.6573 73.2736 42.3698 73.1575 43.084C72.0742 49.8281 69.5242 55.6982 65.578 60.5293C57.9396 69.8804 48.3534 74.5975 37.0228 74.5975H37.0211ZM34.6645 4.6188C34.3583 4.66642 34.0522 4.71403 33.746 4.75994C32.974 4.87898 32.175 5.00141 31.3978 5.13065C24.577 6.26998 18.6173 9.40229 13.682 14.4409C8.63743 19.5917 5.62649 25.6454 4.73498 32.4321C3.91916 38.6406 4.51462 44.3746 6.50622 49.4761C8.49614 54.5708 11.9377 59.1825 16.7317 63.1804C21.1287 66.8467 26.1867 69.0794 31.7662 69.8191C37.921 70.6337 43.5981 70.0334 48.6393 68.0302C53.6873 66.0253 58.2508 62.5546 62.2037 57.715C65.6486 53.4978 67.8808 48.3368 68.8379 42.3766C68.9422 41.7253 69.028 41.0757 69.1188 40.387C69.1541 40.1166 69.1894 39.8479 69.2264 39.5776V35.3161C69.1777 34.9896 69.1306 34.6631 69.0818 34.3366C68.9674 33.5493 68.848 32.7365 68.7134 31.9542C67.3072 23.7817 63.3055 16.9695 56.8193 11.7065C52.5115 8.21025 47.4046 5.95879 41.6384 5.01162C40.9959 4.90619 40.355 4.81946 39.6754 4.72933C39.4097 4.69362 39.1422 4.65791 38.8764 4.6205H34.6645V4.6188Z" fill="#9C9C9C"/>
<path d="M42.2937 6.99975C40.3139 12.4651 38.3963 17.7605 36.403 23.2599C34.4787 17.7299 32.6317 12.4243 30.7613 7.05076C29.7419 7.31264 28.8369 7.60512 27.9101 7.76667C26.9799 7.92822 26.7444 8.39925 26.7461 9.32432C26.773 27.841 26.7663 46.356 26.7663 64.8727C26.7663 65.1277 26.7411 65.3862 26.7831 65.6345C26.8134 65.813 26.9009 66.0868 27.0236 66.1259C28.2297 66.5051 29.4475 66.8435 30.7999 67.2312V24.4876C30.847 24.4808 30.8958 24.474 30.9429 24.4672C32.7142 29.8374 34.4854 35.2092 36.2583 40.5794C36.3357 40.5692 36.4131 40.559 36.4922 40.5471C38.3425 35.2177 40.1944 29.8867 42.0447 24.5573C42.1087 24.5675 42.1726 24.5777 42.2365 24.588V67.2006C43.313 66.92 44.2331 66.6259 45.1768 66.449C46.0666 66.2841 46.2954 65.8385 46.2937 64.9407C46.2651 46.3968 46.2718 27.8512 46.2718 9.30732C46.2718 9.05224 46.3122 8.78697 46.2517 8.5472C46.2046 8.35674 46.0649 8.09146 45.9119 8.04215C44.7462 7.67824 43.5654 7.35855 42.2937 6.99805V6.99975Z" fill="#9C9C9C"/>
<path d="M25.2638 8.88867C18.3117 11.4309 8.02911 19.5984 6.49336 33.9182C5.8222 40.171 6.98284 46.1074 9.92146 51.6697C11.1141 53.9262 12.5674 55.9838 14.4177 57.7677C14.5321 55.7747 14.5371 53.8361 14.522 51.8959C14.522 51.7445 14.3874 51.5932 14.3151 51.4435C13.7533 50.2821 13.1578 49.136 12.6397 47.9541C12.3555 47.3062 12.199 46.6005 11.9669 45.8676H20.85C20.8702 46.2944 20.9022 46.6532 20.9038 47.012C20.9089 51.901 20.961 56.7899 20.8736 61.6771C20.85 62.9797 21.2403 63.7194 22.4093 64.1785C23.3513 64.5492 24.2462 65.0407 25.2622 65.5253V8.88867H25.2638ZM20.8265 41.6708H10.7978C9.98033 37.2172 10.2108 32.835 11.654 28.5328C13.3782 23.3888 16.4076 19.2022 20.8265 15.8284V41.6708Z" fill="#9C9C9C"/>
<path d="M47.9314 8.73828V65.5365C49.1139 64.9498 50.1618 64.3937 51.2417 63.9057C52.0273 63.552 52.3115 63.0452 52.3031 62.144C52.256 57.0561 52.2813 51.9682 52.2863 46.8803C52.2863 46.5266 52.3267 46.1746 52.3502 45.7852H61.3124C60.8128 47.1405 59.1072 50.7235 58.6194 51.9376C58.3704 52.5549 58.6699 57.4438 58.6867 57.7346C58.7842 57.7482 58.8835 57.7635 58.981 57.7771C65.733 49.9872 68.1888 40.9575 66.1871 30.7512C64.9861 24.6294 62.0223 19.4089 57.5445 15.0981C54.7556 12.4113 51.5815 10.3129 47.9297 8.73828H47.9314ZM62.4007 41.6581H52.3485V15.8225C55.8187 18.3971 58.4024 21.5447 60.2376 25.3181C62.7557 30.4944 63.4117 35.9343 62.4007 41.6581Z" fill="#9C9C9C"/>
</g>
<defs>
<clipPath id="clip0_941_257">
<rect width="73.6" height="74.4" fill="white" transform="translate(0 0.199219)"/>
</clipPath>
</defs>
</svg>
