<svg width="40" height="40" viewBox="0 0 40 40" fill="none" xmlns="http://www.w3.org/2000/svg">
<path d="M35.832 29.9994L24.7606 19.9993M15.2368 19.9993L4.16542 29.9994M3.33203 11.666L16.9402 21.1918C18.0422 21.9631 18.5932 22.3488 19.1925 22.4982C19.7219 22.6302 20.2755 22.6302 20.8049 22.4982C21.4042 22.3488 21.9552 21.9631 23.0572 21.1918L36.6654 11.666M11.332 33.3327H28.6654C31.4656 33.3327 32.8658 33.3327 33.9353 32.7877C34.8761 32.3083 35.641 31.5434 36.1204 30.6026C36.6654 29.5331 36.6654 28.1329 36.6654 25.3327V14.666C36.6654 11.8658 36.6654 10.4656 36.1204 9.39606C35.641 8.45525 34.8761 7.69035 33.9353 7.21098C32.8658 6.66602 31.4656 6.66602 28.6654 6.66602H11.332C8.53177 6.66602 7.13164 6.66602 6.06208 7.21098C5.12127 7.69035 4.35637 8.45525 3.877 9.39606C3.33203 10.4656 3.33203 11.8658 3.33203 14.666V25.3327C3.33203 28.1329 3.33203 29.5331 3.877 30.6026C4.35637 31.5434 5.12127 32.3083 6.06208 32.7877C7.13164 33.3327 8.53177 33.3327 11.332 33.3327Z" stroke="black" stroke-width="2" stroke-linecap="round" stroke-linejoin="round"/>
</svg>
