<svg width="40" height="40" viewBox="0 0 40 40" fill="none" xmlns="http://www.w3.org/2000/svg">
<path d="M23.4148 10.0007C25.0427 10.3183 26.5388 11.1144 27.7116 12.2872C28.8844 13.46 29.6805 14.9561 29.9981 16.584M23.4148 3.33398C26.7969 3.70971 29.9508 5.22428 32.3585 7.629C34.7663 10.0337 36.2848 13.1857 36.6648 16.5673M17.0431 23.1058C15.0405 21.1031 13.4592 18.8387 12.2992 16.4227C12.1994 16.2149 12.1495 16.111 12.1112 15.9795C11.975 15.5122 12.0728 14.9385 12.3561 14.5428C12.4359 14.4314 12.5311 14.3361 12.7217 14.1456C13.3043 13.5629 13.5957 13.2716 13.7862 12.9786C14.5045 11.8738 14.5045 10.4495 13.7862 9.3447C13.5957 9.05174 13.3043 8.7604 12.7217 8.17772L12.3969 7.85294C11.5111 6.9672 11.0683 6.52434 10.5926 6.28376C9.6467 5.80531 8.52959 5.80531 7.58366 6.28376C7.10802 6.52434 6.66515 6.96721 5.77942 7.85294L5.51669 8.11567C4.63399 8.99837 4.19264 9.43972 3.85556 10.0398C3.48152 10.7056 3.21259 11.7398 3.21486 12.5035C3.2169 13.1917 3.35041 13.6621 3.61742 14.6028C5.05237 19.6585 7.75983 24.4291 11.7398 28.4091C15.7198 32.389 20.4904 35.0965 25.546 36.5314C26.4868 36.7985 26.9571 36.932 27.6454 36.934C28.4091 36.9363 29.4432 36.6673 30.1091 36.2933C30.7091 35.9562 31.1505 35.5149 32.0332 34.6322L32.2959 34.3694C33.1817 33.4837 33.6245 33.0408 33.8651 32.5652C34.3436 31.6193 34.3436 30.5022 33.8651 29.5562C33.6245 29.0806 33.1817 28.6377 32.2959 27.752L31.9711 27.4272C31.3885 26.8445 31.0971 26.5532 30.8042 26.3627C29.6993 25.6444 28.275 25.6444 27.1702 26.3627C26.8773 26.5532 26.5859 26.8445 26.0032 27.4272C25.8127 27.6177 25.7175 27.713 25.6061 27.7927C25.2104 28.0761 24.6366 28.1739 24.1694 28.0377C24.0379 27.9994 23.934 27.9495 23.7262 27.8497C21.3101 26.6897 19.0457 25.1084 17.0431 23.1058Z" stroke="black" stroke-width="2" stroke-linecap="round" stroke-linejoin="round"/>
</svg>
