<svg width="40" height="40" viewBox="0 0 40 40" fill="none" xmlns="http://www.w3.org/2000/svg">
<path d="M15.8311 19.1667L19.1644 22.5L26.6644 15M20.8311 33.3333C28.6551 33.3333 34.9977 26.9907 34.9977 19.1667C34.9977 11.3426 28.6551 5 20.8311 5C13.007 5 6.66441 11.3426 6.66441 19.1667C6.66441 20.75 6.92416 22.2726 7.40336 23.6944C7.5837 24.2294 7.67386 24.4969 7.69013 24.7024C7.70619 24.9053 7.69405 25.0476 7.64384 25.2449C7.59299 25.4447 7.48074 25.6525 7.25624 26.068L4.53014 31.1139C4.14129 31.8337 3.94686 32.1935 3.99038 32.4713C4.02828 32.7132 4.17066 32.9262 4.3797 33.0537C4.61971 33.2001 5.02658 33.1581 5.84032 33.074L14.3754 32.1917C14.6338 32.165 14.7631 32.1516 14.8808 32.1561C14.9967 32.1605 15.0785 32.1714 15.1915 32.1975C15.3063 32.2239 15.4508 32.2796 15.7397 32.3909C17.3198 32.9996 19.0365 33.3333 20.8311 33.3333Z" stroke="black" stroke-width="2" stroke-linecap="round" stroke-linejoin="round"/>
</svg>
